#!OML:ASF E:\motion texture\Top Level 1\Subject 1\Session 1\male.ASF
:FULLY-SPECIFIED
:DEGREES
658
root -26.2481 18.1515 3.55681 662.528 -104.426 -662.657
lowerback 3.64797 3.54282 9.37909
upperback -0.649364 5.11338 4.09929
thorax -2.27918 2.38051 -1.23553
lowerneck -19.2302 -5.49789 -6.53924
upperneck 14.1546 -6.94612 6.62203
head 7.99845 -3.02246 2.39069
rclavicle -2.55811e-014 7.21588e-014
rhumerus 25.0654 22.8254 -72.3269
rradius 78.2063
rwrist -12.6496
rhand -15.0423 -9.97121
rfingers 7.12502
rthumb 11.1239 -39.6564
lclavicle -2.55811e-014 7.21588e-014
lhumerus -73.2357 -12.6094 86.1128
lradius 52.9863
lwrist 3.08977
lhand -9.67219 2.91063
lfingers 7.12502
lthumb 16.2993 32.2456
rfemur 6.95599 6.56557 39.3303
rtibia 20.3117
rfoot -191.326 178.307
rtoes 8.14952
lfemur -94.3186 9.33624 -10.7884
ltibia 64.7765
lfoot 725.02 -527.248
ltoes -1.28075
659
root -26.4004 18.1409 3.55707 662.783 -104.432 -662.672
lowerback 3.39491 3.57586 9.38456
upperback -0.667762 5.12618 4.05284
thorax -2.15004 2.39213 -1.26962
lowerneck -19.2026 -5.50196 -6.5611
upperneck 14.0611 -6.95028 6.6678
head 7.96551 -3.0225 2.40953
rclavicle -3.04536e-014 -2.0773e-014
rhumerus 24.5745 22.7667 -72.5741
rradius 78.1483
rwrist -12.4621
rhand -15.023 -9.94408
rfingers 7.12502
rthumb 11.1426 -39.6282
lclavicle -3.04536e-014 -2.0773e-014
lhumerus -72.9954 -12.8225 86.1716
lradius 53.0462
lwrist 3.10605
lhand -9.64923 2.88139
lfingers 7.12502
lthumb 16.3214 32.2146
rfemur 7.17257 6.60767 39.2649
rtibia 20.4059
rfoot -191.379 178.392
rtoes 7.4817
lfemur -93.4989 9.4484 -10.7375
ltibia 66.5228
lfoot 725.609 -526.41
ltoes -1.193
660
root -26.554 18.1287 3.55751 663.069 -104.434 -662.677
lowerback 3.09249 3.6077 9.38941
upperback -0.704728 5.13251 4.0055
thorax -2.01308 2.40038 -1.30112
lowerneck -19.1499 -5.5015 -6.59048
upperneck 13.9811 -6.94945 6.7172
head 7.93288 -3.02074 2.43187
rclavicle 4.90518e-014 1.82385e-014
rhumerus 23.9815 22.7508 -72.873
rradius 78.0715
rwrist -12.3005
rhand -14.9933 -9.92875
rfingers 7.12502
rthumb 11.1712 -39.6114
lclavicle 4.90518e-014 1.82385e-014
lhumerus -72.6841 -13.0302 86.2533
lradius 53.0871
lwrist 3.12936
lhand -9.64277 2.85208
lfingers 7.12502
lthumb 16.3276 32.1847
rfemur 7.35985 6.66641 39.1971
rtibia 20.4883
rfoot -191.436 178.462
rtoes 6.82637
lfemur -92.5395 9.57857 -10.6689
ltibia 68.3734
lfoot 726.29 -525.575
ltoes -1.05896
661
root -26.7092 18.1149 3.55816 663.401 -104.437 -662.691
lowerback 2.74796 3.6429 9.39333
upperback -0.760302 5.13925 3.9601
thorax -1.87208 2.40847 -1.32768
lowerneck -19.0872 -5.50058 -6.63422
upperneck 13.9254 -6.94781 6.77416
head 7.90743 -3.01873 2.45928
rclavicle -2.35328e-014 1.44616e-014
rhumerus 23.286 22.77 -73.2133
rradius 77.9764
rwrist -12.1648
rhand -14.9556 -9.93033
rfingers 7.12502
rthumb 11.2075 -39.611
lclavicle -2.35328e-014 1.44616e-014
lhumerus -72.3038 -13.236 86.3603
lradius 53.1054
lwrist 3.15189
lhand -9.65755 2.81292
lfingers 7.12502
lthumb 16.3134 32.1467
rfemur 7.52523 6.74574 39.1304
rtibia 20.5533
rfoot -191.497 178.518
rtoes 6.17643
lfemur -91.4462 9.73139 -10.5837
ltibia 70.3308
lfoot 727.048 -524.76
ltoes -0.919397
662
root -26.8662 18.0997 3.55899 663.787 -104.441 -662.727
lowerback 2.37042 3.68179 9.39317
upperback -0.838092 5.14824 3.91628
thorax -1.736 2.41685 -1.34876
lowerneck -19.0041 -5.4997 -6.68894
upperneck 13.8971 -6.94659 6.83184
head 7.8881 -3.01774 2.48894
rclavicle -8.60045e-015 -1.57537e-014
rhumerus 22.4794 22.822 -73.5996
rradius 77.8568
rwrist -12.0503
rhand -14.9229 -9.94191
rfingers 7.12502
rthumb 11.2391 -39.6208
lclavicle -8.60045e-015 -1.57537e-014
lhumerus -71.8697 -13.4382 86.4888
lradius 53.1041
lwrist 3.16552
lhand -9.68746 2.77346
lfingers 7.12502
lthumb 16.2846 32.1096
rfemur 7.67712 6.84307 39.063
rtibia 20.6002
rfoot -191.561 178.562
rtoes 5.51724
lfemur -90.2189 9.90675 -10.4893
ltibia 72.3964
lfoot 727.855 -523.97
ltoes -0.858271
663
root -27.0248 18.0831 3.56003 664.203 -104.441 -662.776
lowerback 1.96465 3.72428 9.39419
upperback -0.924827 5.15896 3.86944
thorax -1.59283 2.42602 -1.3717
lowerneck -18.9133 -5.50077 -6.74236
upperneck 13.8855 -6.94876 6.88264
head 7.87292 -3.01902 2.51576
rclavicle -3.15745e-015 -6.85062e-014
rhumerus 21.5839 22.8928 -74.0195
rradius 77.7111
rwrist -11.9451
rhand -14.8973 -9.97104
rfingers 7.12502
rthumb 11.2638 -39.6486
lclavicle -3.15745e-015 -6.85062e-014
lhumerus -71.3661 -13.6467 86.6321
lradius 53.0798
lwrist 3.17338
lhand -9.73269 2.7313
lfingers 7.12502
lthumb 16.241 32.071
rfemur 7.82968 6.95267 38.9924
rtibia 20.6259
rfoot -191.629 178.592
rtoes 4.85005
lfemur -88.8477 10.0949 -10.3898
ltibia 74.5804
lfoot 728.701 -523.191
ltoes -0.916245
664
root -27.1856 18.0651 3.56134 664.682 -104.446 -662.874
lowerback 1.54412 3.771 9.39493
upperback -1.02455 5.17429 3.821
thorax -1.45437 2.43679 -1.39534
lowerneck -18.8186 -5.50128 -6.79865
upperneck 13.897 -6.95126 6.93302
head 7.86488 -3.02063 2.54289
rclavicle 6.16178e-014 4.39563e-014
rhumerus 20.5999 22.9887 -74.4737
rradius 77.5373
rwrist -11.8416
rhand -14.8732 -10.0313
rfingers 7.12502
rthumb 11.287 -39.7076
lclavicle 6.16178e-014 4.39563e-014
lhumerus -70.8104 -13.851 86.7831
lradius 53.0413
lwrist 3.17198
lhand -9.78508 2.70086
lfingers 7.12502
lthumb 16.1906 32.0447
rfemur 7.98765 7.0738 38.9179
rtibia 20.634
rfoot -191.698 178.619
rtoes 4.16916
lfemur -87.3308 10.3048 -10.2856
ltibia 76.8944
lfoot 729.589 -522.372
ltoes -1.10159
665
root -27.3486 18.0456 3.56302 665.217 -104.442 -663.027
lowerback 1.11682 3.81698 9.38658
upperback -1.1313 5.18813 3.76793
thorax -1.31992 2.44651 -1.41836
lowerneck -18.7386 -5.50235 -6.8453
upperneck 13.9397 -6.95524 6.96741
head 7.86879 -3.0234 2.56268
rclavicle -2.99709e-014 -9.12546e-015
rhumerus 19.5251 23.1046 -74.9691
rradius 77.3336
rwrist -11.7119
rhand -14.8464 -10.0947
rfingers 7.12502
rthumb 11.3129 -39.7696
lclavicle -2.99709e-014 -9.12546e-015
lhumerus -70.2056 -14.0439 86.9361
lradius 52.9947
lwrist 3.16812
lhand -9.84241 2.67981
lfingers 7.12502
lthumb 16.1354 32.0282
rfemur 8.16336 7.19899 38.8264
rtibia 20.6235
rfoot -191.767 178.636
rtoes 3.47272
lfemur -85.6621 10.5263 -10.1924
ltibia 79.3462
lfoot 730.541 -521.399
ltoes -1.33117
666
root -27.5142 18.0249 3.56506 665.837 -104.438 -663.271
lowerback 0.688743 3.86397 9.37213
upperback -1.24404 5.20368 3.70908
thorax -1.19112 2.45667 -1.44394
lowerneck -18.6623 -5.49837 -6.88072
upperneck 14.0027 -6.95458 6.99128
head 7.8789 -3.0242 2.57771
rclavicle -2.92179e-014 1.93155e-014
rhumerus 18.3682 23.2483 -75.4998
rradius 77.1028
rwrist -11.5542
rhand -14.8225 -10.1726
rfingers 7.12502
rthumb 11.3359 -39.8462
lclavicle -2.92179e-014 1.93155e-014
lhumerus -69.5589 -14.2222 87.0849
lradius 52.9401
lwrist 3.17329
lhand -9.90808 2.66927
lfingers 7.12502
lthumb 16.0722 32.0227
rfemur 8.35894 7.33151 38.7184
rtibia 20.6036
rfoot -191.83 178.659
rtoes 2.77889
lfemur -83.8287 10.7687 -10.1075
ltibia 82.5666
lfoot 733.114 -497.345
ltoes -1.56521
667
root -27.6827 18.0026 3.56767 666.556 -104.433 -663.624
lowerback 0.263339 3.91077 9.35003
upperback -1.36298 5.21987 3.64353
thorax -1.0703 2.46666 -1.47245
lowerneck -18.5882 -5.48737 -6.90614
upperneck 14.0833 -6.94615 7.0047
head 7.8939 -3.02163 2.58864
rclavicle -6.00551e-014 -7.27179e-014
rhumerus 17.1285 23.4156 -76.0756
rradius 76.8302
rwrist -11.3621
rhand -14.7826 -10.2405
rfingers 7.12502
rthumb 11.3744 -39.9121
lclavicle -6.00551e-014 -7.27179e-014
lhumerus -68.8829 -14.3785 87.2267
lradius 52.8858
lwrist 3.19228
lhand -9.97875 2.67152
lfingers 7.12502
lthumb 16.0041 32.0305
rfemur 8.57765 7.46554 38.5852
rtibia 20.5788
rfoot -191.886 178.693
rtoes 2.08958
lfemur -81.8163 11.0269 -10.0319
ltibia 86.1609
lfoot 737.688 -473.583
ltoes -1.72785
668
root -27.8546 17.9789 3.57079 667.388 -104.426 -664.102
lowerback -0.154447 3.95606 9.3151
upperback -1.48953 5.23581 3.57194
thorax -0.962275 2.47588 -1.50089
lowerneck -18.516 -5.4661 -6.92345
upperneck 14.18 -6.92591 7.01286
head 7.91315 -3.01343 2.59806
rclavicle -7.91693e-016 -2.42642e-014
rhumerus 15.7986 23.6133 -76.6958
rradius 76.5225
rwrist -11.1446
rhand -14.7309 -10.305
rfingers 7.12502
rthumb 11.4243 -39.9737
lclavicle -7.91693e-016 -2.42642e-014
lhumerus -68.1868 -14.5081 87.3613
lradius 52.8339
lwrist 3.23651
lhand -10.0457 2.68417
lfingers 7.12502
lthumb 15.9396 32.0483
rfemur 8.81808 7.60226 38.4226
rtibia 20.557
rfoot -191.929 178.743
rtoes 1.41873
lfemur -79.6231 11.302 -9.96953
ltibia 88.6043
lfoot 825.469 -452.365
ltoes -1.80593
669
root -28.0306 17.9537 3.57463 668.332 -104.417 -664.708
lowerback -0.572057 4.00059 9.26918
upperback -1.62029 5.25134 3.49442
thorax -0.859224 2.4846 -1.52944
lowerneck -18.4475 -5.43519 -6.93719
upperneck 14.2906 -6.89392 7.01932
head 7.93657 -2.99951 2.60785
rclavicle 6.19821e-014 -1.79652e-014
rhumerus 14.3799 23.8336 -77.3613
rradius 76.1742
rwrist -10.9095
rhand -14.6652 -10.3667
rfingers 7.12502
rthumb 11.4877 -40.032
lclavicle 6.19821e-014 -1.79652e-014
lhumerus -67.4678 -14.6071 87.4891
lradius 52.7797
lwrist 3.30513
lhand -10.1135 2.69719
lfingers 7.12502
lthumb 15.8743 32.0665
rfemur 9.08329 7.73312 38.2247
rtibia 20.5403
rfoot -191.953 178.821
rtoes 0.758808
lfemur -77.2471 11.5872 -9.92071
ltibia 88.8259
lfoot 909.424 -473.426
ltoes -1.79269
670
root -28.2111 17.927 3.57916 669.366 -104.405 -665.421
lowerback -0.989326 4.04225 9.21209
upperback -1.75966 5.26407 3.41192
thorax -0.766157 2.49128 -1.55732
lowerneck -18.3672 -5.39352 -6.94114
upperneck 14.4084 -6.84898 7.01438
head 7.95859 -2.98029 2.61419
rclavicle 3.49832e-014 -4.32108e-014
rhumerus 12.8572 24.0718 -78.0809
rradius 75.7849
rwrist -10.674
rhand -14.5809 -10.4184
rfingers 7.12502
rthumb 11.5689 -40.079
lclavicle 3.49832e-014 -4.32108e-014
lhumerus -66.734 -14.6742 87.6132
lradius 52.7177
lwrist 3.39469
lhand -10.179 2.72059
lfingers 7.12502
lthumb 15.8113 32.0949
rfemur 9.36931 7.85416 37.9907
rtibia 20.5384
rfoot -191.952 178.927
rtoes 0.108362
lfemur -74.686 11.8684 -9.8783
ltibia 86.5709
lfoot 913.64 -496.329
ltoes -1.69545
671
root -28.3968 17.8989 3.58446 670.461 -104.384 -666.213
lowerback -1.41295 4.07895 9.14394
upperback -1.90666 5.27028 3.32678
thorax -0.678861 2.49421 -1.5818
lowerneck -18.2724 -5.34106 -6.94069
upperneck 14.5317 -6.79085 7.00403
head 7.97857 -2.95549 2.62
rclavicle 2.10855e-014 1.8487e-014
rhumerus 11.2304 24.3273 -78.847
rradius 75.3567
rwrist -10.4607
rhand -14.4865 -10.4771
rfingers 7.12502
rthumb 11.6599 -40.1327
lclavicle 2.10855e-014 1.8487e-014
lhumerus -65.9814 -14.7055 87.7366
lradius 52.6348
lwrist 3.49423
lhand -10.2542 2.74208
lfingers 7.12502
lthumb 15.7389 32.1221
rfemur 9.67286 7.95768 37.7191
rtibia 20.5614
rfoot -191.923 179.068
rtoes -0.53363
lfemur -71.9448 12.1254 -9.83423
ltibia 82.5366
lfoot 915.656 -519.085
ltoes -1.51
